<svg xmlns="http://www.w3.org/2000/svg" xmlns:xlink="http://www.w3.org/1999/xlink" width="500" zoomAndPan="magnify" viewBox="0 0 375 374.999991" height="500" preserveAspectRatio="xMidYMid meet" version="1.0"><defs><g/><clipPath id="c545f32a17"><path d="M 153 127 L 238.425781 127 L 238.425781 162 L 153 162 Z M 153 127 " clip-rule="nonzero"/></clipPath><clipPath id="9b57b7e43a"><path d="M 116.175781 90.171875 L 220 90.171875 L 220 209 L 116.175781 209 Z M 116.175781 90.171875 " clip-rule="nonzero"/></clipPath><clipPath id="8698fb11b1"><path d="M 141 170 L 197 170 L 197 212.421875 L 141 212.421875 Z M 141 170 " clip-rule="nonzero"/></clipPath></defs><path fill="#58595b" d="M 175.332031 127.117188 C 163.109375 127.117188 153.164062 137.0625 153.164062 149.285156 C 153.164062 161.507812 163.109375 171.453125 175.332031 171.453125 C 182.84375 171.453125 189.488281 167.695312 193.5 161.96875 L 175.335938 161.96875 L 175.335938 153 C 175.335938 148.234375 179.195312 144.371094 183.960938 144.371094 L 215.101562 144.371094 L 215.101562 193.015625 C 226.984375 182.203125 234.453125 166.617188 234.453125 149.285156 C 234.453125 141.445312 232.917969 133.960938 230.148438 127.117188 Z M 175.332031 127.117188 " fill-opacity="1" fill-rule="nonzero"/><g clip-path="url(#c545f32a17)"><path fill="#414042" d="M 175.332031 127.117188 C 163.109375 127.117188 153.164062 137.0625 153.164062 149.285156 C 153.164062 153.667969 154.449219 157.753906 156.652344 161.199219 C 156.242188 159.511719 156.019531 157.753906 156.019531 155.941406 C 156.019531 143.714844 165.964844 133.773438 178.1875 133.773438 L 232.390625 133.773438 L 238.386719 127.117188 Z M 175.332031 127.117188 " fill-opacity="1" fill-rule="nonzero"/></g><g clip-path="url(#9b57b7e43a)"><path fill="#ef4136" d="M 196.550781 182.890625 C 190.40625 186.785156 183.128906 189.050781 175.332031 189.050781 C 153.40625 189.050781 135.566406 171.210938 135.566406 149.285156 C 135.566406 127.359375 153.40625 109.519531 175.332031 109.519531 L 219.070312 109.519531 C 208.257812 97.632812 192.667969 90.167969 175.332031 90.167969 C 142.683594 90.167969 116.214844 116.636719 116.214844 149.285156 C 116.214844 181.933594 142.683594 208.402344 175.332031 208.402344 C 182.8125 208.402344 189.964844 207.011719 196.550781 204.476562 Z M 196.550781 182.890625 " fill-opacity="1" fill-rule="nonzero"/></g><g clip-path="url(#8698fb11b1)"><path fill="#d93a31" d="M 196.550781 182.890625 C 190.40625 186.785156 183.128906 189.050781 175.332031 189.050781 C 161.339844 189.050781 149.023438 181.78125 141.933594 170.828125 C 148.175781 184.640625 162.070312 194.28125 178.1875 194.28125 C 182.25 194.28125 186.167969 193.664062 189.863281 192.523438 C 189.863281 198.519531 189.863281 205.332031 189.863281 206.601562 C 191.605469 208.449219 194.300781 210.351562 196.550781 212.414062 C 196.550781 211.488281 196.550781 208.855469 196.550781 205.519531 C 196.550781 200.722656 196.550781 194.480469 196.550781 189.765625 Z M 196.550781 182.890625 " fill-opacity="1" fill-rule="nonzero"/></g><g fill="#ef4136" fill-opacity="1"><g transform="translate(109.236822, 244.079216)"><g><path d="M 29.25 -16.765625 L 29.25 -10.265625 C 28.476562 -6.710938 26.785156 -4.019531 24.171875 -2.1875 C 21.554688 -0.363281 18.640625 0.546875 15.421875 0.546875 C 11.378906 0.546875 7.9375 -0.960938 5.09375 -3.984375 C 2.25 -7.015625 0.828125 -10.671875 0.828125 -14.953125 C 0.828125 -19.304688 2.21875 -22.984375 5 -25.984375 C 7.789062 -28.984375 11.265625 -30.484375 15.421875 -30.484375 C 20.285156 -30.484375 24.132812 -28.78125 26.96875 -25.375 L 22.5 -20.46875 C 20.90625 -23.03125 18.679688 -24.3125 15.828125 -24.3125 C 13.722656 -24.3125 11.925781 -23.398438 10.4375 -21.578125 C 8.945312 -19.753906 8.203125 -17.546875 8.203125 -14.953125 C 8.203125 -12.410156 8.945312 -10.238281 10.4375 -8.4375 C 11.925781 -6.632812 13.722656 -5.734375 15.828125 -5.734375 C 17.566406 -5.734375 19.082031 -6.257812 20.375 -7.3125 C 21.675781 -8.363281 22.328125 -9.757812 22.328125 -11.5 L 15.421875 -11.5 L 15.421875 -16.765625 Z M 29.25 -16.765625 "/></g></g></g><g fill="#ef4136" fill-opacity="1"><g transform="translate(139.32932, 244.079216)"><g><path d="M 21.015625 -8.421875 L 7.515625 -8.421875 C 7.515625 -7.109375 7.9375 -6.140625 8.78125 -5.515625 C 9.625 -4.890625 10.546875 -4.578125 11.546875 -4.578125 C 12.585938 -4.578125 13.410156 -4.710938 14.015625 -4.984375 C 14.617188 -5.265625 15.304688 -5.816406 16.078125 -6.640625 L 20.71875 -4.3125 C 18.789062 -1.070312 15.578125 0.546875 11.078125 0.546875 C 8.265625 0.546875 5.851562 -0.414062 3.84375 -2.34375 C 1.832031 -4.269531 0.828125 -6.585938 0.828125 -9.296875 C 0.828125 -12.003906 1.832031 -14.328125 3.84375 -16.265625 C 5.851562 -18.203125 8.265625 -19.171875 11.078125 -19.171875 C 14.023438 -19.171875 16.421875 -18.316406 18.265625 -16.609375 C 20.117188 -14.898438 21.046875 -12.460938 21.046875 -9.296875 C 21.046875 -8.859375 21.035156 -8.566406 21.015625 -8.421875 Z M 7.6875 -11.984375 L 14.765625 -11.984375 C 14.628906 -12.953125 14.25 -13.691406 13.625 -14.203125 C 13.007812 -14.722656 12.21875 -14.984375 11.25 -14.984375 C 10.1875 -14.984375 9.335938 -14.707031 8.703125 -14.15625 C 8.078125 -13.601562 7.738281 -12.878906 7.6875 -11.984375 Z M 7.6875 -11.984375 "/></g></g></g><g fill="#ef4136" fill-opacity="1"><g transform="translate(161.218071, 244.079216)"><g><path d="M 2.171875 0 L 2.171875 -18.625 L 8.609375 -18.625 L 8.609375 -16.65625 L 8.671875 -16.65625 C 10.335938 -18.332031 12.117188 -19.171875 14.015625 -19.171875 C 14.929688 -19.171875 15.84375 -19.046875 16.75 -18.796875 C 17.65625 -18.554688 18.523438 -18.179688 19.359375 -17.671875 C 20.191406 -17.171875 20.867188 -16.453125 21.390625 -15.515625 C 21.910156 -14.585938 22.171875 -13.503906 22.171875 -12.265625 L 22.171875 0 L 15.75 0 L 15.75 -10.53125 C 15.75 -11.5 15.441406 -12.34375 14.828125 -13.0625 C 14.210938 -13.789062 13.40625 -14.15625 12.40625 -14.15625 C 11.445312 -14.15625 10.570312 -13.78125 9.78125 -13.03125 C 9 -12.28125 8.609375 -11.445312 8.609375 -10.53125 L 8.609375 0 Z M 2.171875 0 "/></g></g></g><g fill="#ef4136" fill-opacity="1"><g transform="translate(185.212206, 244.079216)"><g><path d="M 8.234375 -18.625 L 8.234375 -9.765625 C 8.234375 -7.921875 8.507812 -6.613281 9.0625 -5.84375 C 9.625 -5.070312 10.570312 -4.6875 11.90625 -4.6875 C 13.238281 -4.6875 14.179688 -5.070312 14.734375 -5.84375 C 15.296875 -6.613281 15.578125 -7.921875 15.578125 -9.765625 L 15.578125 -18.625 L 22 -18.625 L 22 -8.203125 C 22 -5.109375 21.191406 -2.875 19.578125 -1.5 C 17.972656 -0.132812 15.414062 0.546875 11.90625 0.546875 C 8.394531 0.546875 5.832031 -0.132812 4.21875 -1.5 C 2.613281 -2.875 1.8125 -5.109375 1.8125 -8.203125 L 1.8125 -18.625 Z M 8.234375 -18.625 "/></g></g></g><g fill="#ef4136" fill-opacity="1"><g transform="translate(209.024842, 244.079216)"><g><path d="M 2.796875 -29 C 3.546875 -29.75 4.441406 -30.125 5.484375 -30.125 C 6.523438 -30.125 7.421875 -29.75 8.171875 -29 C 8.921875 -28.25 9.296875 -27.351562 9.296875 -26.3125 C 9.296875 -25.269531 8.921875 -24.375 8.171875 -23.625 C 7.421875 -22.875 6.523438 -22.5 5.484375 -22.5 C 4.441406 -22.5 3.546875 -22.875 2.796875 -23.625 C 2.046875 -24.375 1.671875 -25.269531 1.671875 -26.3125 C 1.671875 -27.351562 2.046875 -28.25 2.796875 -29 Z M 2.171875 -18.625 L 2.171875 0 L 8.609375 0 L 8.609375 -18.625 Z M 2.171875 -18.625 "/></g></g></g><g fill="#ef4136" fill-opacity="1"><g transform="translate(219.987363, 244.079216)"><g><path d="M 2.171875 0 L 2.171875 -18.625 L 8.609375 -18.625 L 8.609375 -16.65625 L 8.671875 -16.65625 C 10.335938 -18.332031 12.117188 -19.171875 14.015625 -19.171875 C 14.929688 -19.171875 15.84375 -19.046875 16.75 -18.796875 C 17.65625 -18.554688 18.523438 -18.179688 19.359375 -17.671875 C 20.191406 -17.171875 20.867188 -16.453125 21.390625 -15.515625 C 21.910156 -14.585938 22.171875 -13.503906 22.171875 -12.265625 L 22.171875 0 L 15.75 0 L 15.75 -10.53125 C 15.75 -11.5 15.441406 -12.34375 14.828125 -13.0625 C 14.210938 -13.789062 13.40625 -14.15625 12.40625 -14.15625 C 11.445312 -14.15625 10.570312 -13.78125 9.78125 -13.03125 C 9 -12.28125 8.609375 -11.445312 8.609375 -10.53125 L 8.609375 0 Z M 2.171875 0 "/></g></g></g><g fill="#ef4136" fill-opacity="1"><g transform="translate(243.981498, 244.079216)"><g><path d="M 21.015625 -8.421875 L 7.515625 -8.421875 C 7.515625 -7.109375 7.9375 -6.140625 8.78125 -5.515625 C 9.625 -4.890625 10.546875 -4.578125 11.546875 -4.578125 C 12.585938 -4.578125 13.410156 -4.710938 14.015625 -4.984375 C 14.617188 -5.265625 15.304688 -5.816406 16.078125 -6.640625 L 20.71875 -4.3125 C 18.789062 -1.070312 15.578125 0.546875 11.078125 0.546875 C 8.265625 0.546875 5.851562 -0.414062 3.84375 -2.34375 C 1.832031 -4.269531 0.828125 -6.585938 0.828125 -9.296875 C 0.828125 -12.003906 1.832031 -14.328125 3.84375 -16.265625 C 5.851562 -18.203125 8.265625 -19.171875 11.078125 -19.171875 C 14.023438 -19.171875 16.421875 -18.316406 18.265625 -16.609375 C 20.117188 -14.898438 21.046875 -12.460938 21.046875 -9.296875 C 21.046875 -8.859375 21.035156 -8.566406 21.015625 -8.421875 Z M 7.6875 -11.984375 L 14.765625 -11.984375 C 14.628906 -12.953125 14.25 -13.691406 13.625 -14.203125 C 13.007812 -14.722656 12.21875 -14.984375 11.25 -14.984375 C 10.1875 -14.984375 9.335938 -14.707031 8.703125 -14.15625 C 8.078125 -13.601562 7.738281 -12.878906 7.6875 -11.984375 Z M 7.6875 -11.984375 "/></g></g></g><g fill="#ad9551" fill-opacity="1"><g transform="translate(120.597653, 267.046857)"><g><path d="M 6.375 -6.109375 C 6.375 -5.273438 6.09375 -4.640625 5.53125 -4.203125 C 4.96875 -3.765625 4.171875 -3.546875 3.140625 -3.546875 L 1.8125 -3.546875 L 1.8125 0 L 1.21875 0 L 1.21875 -8.5625 L 3.3125 -8.5625 C 5.351562 -8.5625 6.375 -7.742188 6.375 -6.109375 Z M 1.8125 -4.0625 L 2.984375 -4.0625 C 3.953125 -4.0625 4.648438 -4.21875 5.078125 -4.53125 C 5.503906 -4.851562 5.71875 -5.367188 5.71875 -6.078125 C 5.71875 -6.742188 5.515625 -7.234375 5.109375 -7.546875 C 4.703125 -7.867188 4.078125 -8.03125 3.234375 -8.03125 L 1.8125 -8.03125 Z M 1.8125 -4.0625 "/></g></g><g transform="translate(127.617184, 267.046857)"><g><path d="M 3.578125 -6.5 C 3.847656 -6.5 4.132812 -6.46875 4.4375 -6.40625 L 4.328125 -5.859375 C 4.066406 -5.921875 3.789062 -5.953125 3.5 -5.953125 C 2.957031 -5.953125 2.507812 -5.722656 2.15625 -5.265625 C 1.8125 -4.804688 1.640625 -4.222656 1.640625 -3.515625 L 1.640625 0 L 1.0625 0 L 1.0625 -6.375 L 1.5625 -6.375 L 1.625 -5.21875 L 1.65625 -5.21875 C 1.914062 -5.6875 2.191406 -6.015625 2.484375 -6.203125 C 2.785156 -6.398438 3.148438 -6.5 3.578125 -6.5 Z M 3.578125 -6.5 "/></g></g><g transform="translate(132.287105, 267.046857)"><g><path d="M 3.640625 0.125 C 2.710938 0.125 1.988281 -0.160156 1.46875 -0.734375 C 0.957031 -1.304688 0.703125 -2.109375 0.703125 -3.140625 C 0.703125 -4.148438 0.953125 -4.960938 1.453125 -5.578125 C 1.953125 -6.191406 2.625 -6.5 3.46875 -6.5 C 4.21875 -6.5 4.804688 -6.234375 5.234375 -5.703125 C 5.671875 -5.179688 5.890625 -4.472656 5.890625 -3.578125 L 5.890625 -3.109375 L 1.3125 -3.109375 C 1.3125 -2.234375 1.507812 -1.5625 1.90625 -1.09375 C 2.3125 -0.632812 2.890625 -0.40625 3.640625 -0.40625 C 4.003906 -0.40625 4.320312 -0.429688 4.59375 -0.484375 C 4.875 -0.535156 5.222656 -0.644531 5.640625 -0.8125 L 5.640625 -0.28125 C 5.285156 -0.125 4.953125 -0.0195312 4.640625 0.03125 C 4.335938 0.09375 4.003906 0.125 3.640625 0.125 Z M 3.46875 -5.984375 C 2.851562 -5.984375 2.359375 -5.78125 1.984375 -5.375 C 1.617188 -4.96875 1.40625 -4.382812 1.34375 -3.625 L 5.28125 -3.625 C 5.28125 -4.363281 5.117188 -4.941406 4.796875 -5.359375 C 4.472656 -5.773438 4.03125 -5.984375 3.46875 -5.984375 Z M 3.46875 -5.984375 "/></g></g><g transform="translate(138.873042, 267.046857)"><g><path d="M 9.03125 0 L 9.03125 -4.171875 C 9.03125 -4.796875 8.90625 -5.25 8.65625 -5.53125 C 8.414062 -5.820312 8.046875 -5.96875 7.546875 -5.96875 C 6.890625 -5.96875 6.40625 -5.785156 6.09375 -5.421875 C 5.78125 -5.066406 5.625 -4.503906 5.625 -3.734375 L 5.625 0 L 5.046875 0 L 5.046875 -4.359375 C 5.046875 -5.429688 4.550781 -5.96875 3.5625 -5.96875 C 2.894531 -5.96875 2.40625 -5.769531 2.09375 -5.375 C 1.789062 -4.988281 1.640625 -4.367188 1.640625 -3.515625 L 1.640625 0 L 1.0625 0 L 1.0625 -6.375 L 1.546875 -6.375 L 1.671875 -5.5 L 1.703125 -5.5 C 1.878906 -5.8125 2.128906 -6.054688 2.453125 -6.234375 C 2.773438 -6.410156 3.132812 -6.5 3.53125 -6.5 C 4.53125 -6.5 5.175781 -6.117188 5.46875 -5.359375 L 5.484375 -5.359375 C 5.691406 -5.722656 5.96875 -6.003906 6.3125 -6.203125 C 6.664062 -6.398438 7.066406 -6.5 7.515625 -6.5 C 8.210938 -6.5 8.734375 -6.3125 9.078125 -5.9375 C 9.421875 -5.5625 9.59375 -4.972656 9.59375 -4.171875 L 9.59375 0 Z M 9.03125 0 "/></g></g><g transform="translate(149.466792, 267.046857)"><g><path d="M 1.640625 0 L 1.0625 0 L 1.0625 -6.375 L 1.640625 -6.375 Z M 0.984375 -8.140625 C 0.984375 -8.515625 1.109375 -8.703125 1.359375 -8.703125 C 1.472656 -8.703125 1.5625 -8.648438 1.625 -8.546875 C 1.695312 -8.453125 1.734375 -8.316406 1.734375 -8.140625 C 1.734375 -7.960938 1.695312 -7.820312 1.625 -7.71875 C 1.5625 -7.625 1.472656 -7.578125 1.359375 -7.578125 C 1.109375 -7.578125 0.984375 -7.765625 0.984375 -8.140625 Z M 0.984375 -8.140625 "/></g></g><g transform="translate(152.179682, 267.046857)"><g><path d="M 1.578125 -6.375 L 1.578125 -2.25 C 1.578125 -1.601562 1.707031 -1.132812 1.96875 -0.84375 C 2.238281 -0.550781 2.660156 -0.40625 3.234375 -0.40625 C 3.984375 -0.40625 4.535156 -0.597656 4.890625 -0.984375 C 5.253906 -1.367188 5.4375 -1.992188 5.4375 -2.859375 L 5.4375 -6.375 L 6.015625 -6.375 L 6.015625 0 L 5.515625 0 L 5.421875 -0.875 L 5.375 -0.875 C 4.96875 -0.207031 4.234375 0.125 3.171875 0.125 C 1.722656 0.125 1 -0.648438 1 -2.203125 L 1 -6.375 Z M 1.578125 -6.375 "/></g></g><g transform="translate(159.257807, 267.046857)"><g><path d="M 9.03125 0 L 9.03125 -4.171875 C 9.03125 -4.796875 8.90625 -5.25 8.65625 -5.53125 C 8.414062 -5.820312 8.046875 -5.96875 7.546875 -5.96875 C 6.890625 -5.96875 6.40625 -5.785156 6.09375 -5.421875 C 5.78125 -5.066406 5.625 -4.503906 5.625 -3.734375 L 5.625 0 L 5.046875 0 L 5.046875 -4.359375 C 5.046875 -5.429688 4.550781 -5.96875 3.5625 -5.96875 C 2.894531 -5.96875 2.40625 -5.769531 2.09375 -5.375 C 1.789062 -4.988281 1.640625 -4.367188 1.640625 -3.515625 L 1.640625 0 L 1.0625 0 L 1.0625 -6.375 L 1.546875 -6.375 L 1.671875 -5.5 L 1.703125 -5.5 C 1.878906 -5.8125 2.128906 -6.054688 2.453125 -6.234375 C 2.773438 -6.410156 3.132812 -6.5 3.53125 -6.5 C 4.53125 -6.5 5.175781 -6.117188 5.46875 -5.359375 L 5.484375 -5.359375 C 5.691406 -5.722656 5.96875 -6.003906 6.3125 -6.203125 C 6.664062 -6.398438 7.066406 -6.5 7.515625 -6.5 C 8.210938 -6.5 8.734375 -6.3125 9.078125 -5.9375 C 9.421875 -5.5625 9.59375 -4.972656 9.59375 -4.171875 L 9.59375 0 Z M 9.03125 0 "/></g></g><g transform="translate(169.851556, 267.046857)"><g/></g><g transform="translate(172.968743, 267.046857)"><g><path d="M 3.328125 0.125 C 2.492188 0.125 1.847656 -0.148438 1.390625 -0.703125 C 0.929688 -1.265625 0.703125 -2.070312 0.703125 -3.125 C 0.703125 -4.195312 0.929688 -5.023438 1.390625 -5.609375 C 1.847656 -6.203125 2.507812 -6.5 3.375 -6.5 C 4.289062 -6.5 4.976562 -6.15625 5.4375 -5.46875 L 5.46875 -5.46875 L 5.578125 -6.375 L 6.078125 -6.375 L 6.078125 2.890625 L 5.5 2.890625 L 5.5 0.453125 C 5.5 -0.0234375 5.507812 -0.507812 5.53125 -1 L 5.5 -1 C 5.039062 -0.25 4.316406 0.125 3.328125 0.125 Z M 3.34375 -0.40625 C 4.113281 -0.40625 4.664062 -0.613281 5 -1.03125 C 5.332031 -1.457031 5.5 -2.175781 5.5 -3.1875 L 5.5 -3.25 C 5.5 -4.207031 5.332031 -4.898438 5 -5.328125 C 4.664062 -5.753906 4.132812 -5.96875 3.40625 -5.96875 C 2.71875 -5.96875 2.195312 -5.722656 1.84375 -5.234375 C 1.488281 -4.753906 1.3125 -4.046875 1.3125 -3.109375 C 1.3125 -2.210938 1.484375 -1.535156 1.828125 -1.078125 C 2.179688 -0.628906 2.6875 -0.40625 3.34375 -0.40625 Z M 3.34375 -0.40625 "/></g></g><g transform="translate(180.111321, 267.046857)"><g><path d="M 1.578125 -6.375 L 1.578125 -2.25 C 1.578125 -1.601562 1.707031 -1.132812 1.96875 -0.84375 C 2.238281 -0.550781 2.660156 -0.40625 3.234375 -0.40625 C 3.984375 -0.40625 4.535156 -0.597656 4.890625 -0.984375 C 5.253906 -1.367188 5.4375 -1.992188 5.4375 -2.859375 L 5.4375 -6.375 L 6.015625 -6.375 L 6.015625 0 L 5.515625 0 L 5.421875 -0.875 L 5.375 -0.875 C 4.96875 -0.207031 4.234375 0.125 3.171875 0.125 C 1.722656 0.125 1 -0.648438 1 -2.203125 L 1 -6.375 Z M 1.578125 -6.375 "/></g></g><g transform="translate(187.189445, 267.046857)"><g><path d="M 4.9375 0 L 4.78125 -1.015625 L 4.734375 -1.015625 C 4.421875 -0.597656 4.09375 -0.300781 3.75 -0.125 C 3.414062 0.0390625 3.019531 0.125 2.5625 0.125 C 1.9375 0.125 1.445312 -0.0351562 1.09375 -0.359375 C 0.75 -0.679688 0.578125 -1.125 0.578125 -1.6875 C 0.578125 -2.3125 0.832031 -2.796875 1.34375 -3.140625 C 1.863281 -3.484375 2.613281 -3.664062 3.59375 -3.6875 L 4.8125 -3.71875 L 4.8125 -4.140625 C 4.8125 -4.742188 4.6875 -5.203125 4.4375 -5.515625 C 4.195312 -5.828125 3.800781 -5.984375 3.25 -5.984375 C 2.664062 -5.984375 2.054688 -5.816406 1.421875 -5.484375 L 1.203125 -5.984375 C 1.898438 -6.316406 2.59375 -6.484375 3.28125 -6.484375 C 3.976562 -6.484375 4.5 -6.300781 4.84375 -5.9375 C 5.1875 -5.570312 5.359375 -5.003906 5.359375 -4.234375 L 5.359375 0 Z M 2.59375 -0.40625 C 3.269531 -0.40625 3.800781 -0.597656 4.1875 -0.984375 C 4.582031 -1.378906 4.78125 -1.921875 4.78125 -2.609375 L 4.78125 -3.234375 L 3.671875 -3.1875 C 2.773438 -3.144531 2.132812 -3.003906 1.75 -2.765625 C 1.375 -2.535156 1.1875 -2.171875 1.1875 -1.671875 C 1.1875 -1.273438 1.304688 -0.960938 1.546875 -0.734375 C 1.796875 -0.515625 2.144531 -0.40625 2.59375 -0.40625 Z M 2.59375 -0.40625 "/></g></g><g transform="translate(193.546867, 267.046857)"><g><path d="M 1.640625 0 L 1.0625 0 L 1.0625 -9.125 L 1.640625 -9.125 Z M 1.640625 0 "/></g></g><g transform="translate(196.259757, 267.046857)"><g><path d="M 1.640625 0 L 1.0625 0 L 1.0625 -6.375 L 1.640625 -6.375 Z M 0.984375 -8.140625 C 0.984375 -8.515625 1.109375 -8.703125 1.359375 -8.703125 C 1.472656 -8.703125 1.5625 -8.648438 1.625 -8.546875 C 1.695312 -8.453125 1.734375 -8.316406 1.734375 -8.140625 C 1.734375 -7.960938 1.695312 -7.820312 1.625 -7.71875 C 1.5625 -7.625 1.472656 -7.578125 1.359375 -7.578125 C 1.109375 -7.578125 0.984375 -7.765625 0.984375 -8.140625 Z M 0.984375 -8.140625 "/></g></g><g transform="translate(198.972648, 267.046857)"><g><path d="M 2.75 -0.40625 C 3.113281 -0.40625 3.429688 -0.4375 3.703125 -0.5 L 3.703125 -0.03125 C 3.421875 0.0703125 3.097656 0.125 2.734375 0.125 C 2.171875 0.125 1.753906 -0.0234375 1.484375 -0.328125 C 1.222656 -0.628906 1.09375 -1.101562 1.09375 -1.75 L 1.09375 -5.859375 L 0.140625 -5.859375 L 0.140625 -6.203125 L 1.09375 -6.46875 L 1.390625 -7.90625 L 1.6875 -7.90625 L 1.6875 -6.375 L 3.546875 -6.375 L 3.546875 -5.859375 L 1.6875 -5.859375 L 1.6875 -1.828125 C 1.6875 -1.347656 1.769531 -0.988281 1.9375 -0.75 C 2.113281 -0.519531 2.382812 -0.40625 2.75 -0.40625 Z M 2.75 -0.40625 "/></g></g><g transform="translate(202.992179, 267.046857)"><g><path d="M 0 -6.375 L 0.59375 -6.375 L 1.953125 -2.796875 C 2.359375 -1.703125 2.613281 -0.960938 2.71875 -0.578125 L 2.765625 -0.578125 C 2.921875 -1.078125 3.1875 -1.828125 3.5625 -2.828125 L 4.90625 -6.375 L 5.515625 -6.375 L 2.65625 1.03125 C 2.425781 1.632812 2.234375 2.039062 2.078125 2.25 C 1.921875 2.457031 1.738281 2.613281 1.53125 2.71875 C 1.320312 2.832031 1.066406 2.890625 0.765625 2.890625 C 0.546875 2.890625 0.300781 2.847656 0.03125 2.765625 L 0.03125 2.25 C 0.25 2.3125 0.488281 2.34375 0.75 2.34375 C 0.957031 2.34375 1.132812 2.296875 1.28125 2.203125 C 1.4375 2.109375 1.570312 1.960938 1.6875 1.765625 C 1.8125 1.578125 1.957031 1.265625 2.125 0.828125 C 2.289062 0.398438 2.394531 0.125 2.4375 0 Z M 0 -6.375 "/></g></g><g transform="translate(208.499991, 267.046857)"><g/></g><g transform="translate(211.617178, 267.046857)"><g><path d="M 3.796875 0.125 C 2.816406 0.125 2.097656 -0.242188 1.640625 -0.984375 L 1.609375 -0.984375 L 1.625 -0.5 C 1.632812 -0.207031 1.640625 0.109375 1.640625 0.453125 L 1.640625 2.890625 L 1.0625 2.890625 L 1.0625 -6.375 L 1.5625 -6.375 L 1.671875 -5.46875 L 1.703125 -5.46875 C 2.140625 -6.15625 2.835938 -6.5 3.796875 -6.5 C 4.660156 -6.5 5.316406 -6.210938 5.765625 -5.640625 C 6.222656 -5.078125 6.453125 -4.257812 6.453125 -3.1875 C 6.453125 -2.132812 6.210938 -1.316406 5.734375 -0.734375 C 5.253906 -0.160156 4.609375 0.125 3.796875 0.125 Z M 3.78125 -0.40625 C 4.4375 -0.40625 4.941406 -0.644531 5.296875 -1.125 C 5.648438 -1.613281 5.828125 -2.289062 5.828125 -3.15625 C 5.828125 -5.03125 5.148438 -5.96875 3.796875 -5.96875 C 3.054688 -5.96875 2.507812 -5.757812 2.15625 -5.34375 C 1.8125 -4.9375 1.640625 -4.273438 1.640625 -3.359375 L 1.640625 -3.171875 C 1.640625 -2.171875 1.804688 -1.457031 2.140625 -1.03125 C 2.484375 -0.613281 3.03125 -0.40625 3.78125 -0.40625 Z M 3.78125 -0.40625 "/></g></g><g transform="translate(218.759756, 267.046857)"><g><path d="M 3.578125 -6.5 C 3.847656 -6.5 4.132812 -6.46875 4.4375 -6.40625 L 4.328125 -5.859375 C 4.066406 -5.921875 3.789062 -5.953125 3.5 -5.953125 C 2.957031 -5.953125 2.507812 -5.722656 2.15625 -5.265625 C 1.8125 -4.804688 1.640625 -4.222656 1.640625 -3.515625 L 1.640625 0 L 1.0625 0 L 1.0625 -6.375 L 1.5625 -6.375 L 1.625 -5.21875 L 1.65625 -5.21875 C 1.914062 -5.6875 2.191406 -6.015625 2.484375 -6.203125 C 2.785156 -6.398438 3.148438 -6.5 3.578125 -6.5 Z M 3.578125 -6.5 "/></g></g><g transform="translate(223.429678, 267.046857)"><g><path d="M 6.328125 -3.1875 C 6.328125 -2.15625 6.078125 -1.34375 5.578125 -0.75 C 5.078125 -0.164062 4.382812 0.125 3.5 0.125 C 2.9375 0.125 2.441406 -0.0078125 2.015625 -0.28125 C 1.585938 -0.550781 1.257812 -0.9375 1.03125 -1.4375 C 0.8125 -1.945312 0.703125 -2.53125 0.703125 -3.1875 C 0.703125 -4.226562 0.953125 -5.039062 1.453125 -5.625 C 1.953125 -6.207031 2.644531 -6.5 3.53125 -6.5 C 4.40625 -6.5 5.085938 -6.203125 5.578125 -5.609375 C 6.078125 -5.023438 6.328125 -4.21875 6.328125 -3.1875 Z M 1.3125 -3.1875 C 1.3125 -2.3125 1.503906 -1.628906 1.890625 -1.140625 C 2.273438 -0.648438 2.816406 -0.40625 3.515625 -0.40625 C 4.222656 -0.40625 4.765625 -0.648438 5.140625 -1.140625 C 5.523438 -1.628906 5.71875 -2.3125 5.71875 -3.1875 C 5.71875 -4.070312 5.523438 -4.753906 5.140625 -5.234375 C 4.753906 -5.722656 4.207031 -5.96875 3.5 -5.96875 C 2.800781 -5.96875 2.257812 -5.722656 1.875 -5.234375 C 1.5 -4.753906 1.3125 -4.070312 1.3125 -3.1875 Z M 1.3125 -3.1875 "/></g></g><g transform="translate(230.460927, 267.046857)"><g><path d="M 3.40625 -6.5 C 3.863281 -6.5 4.257812 -6.410156 4.59375 -6.234375 C 4.925781 -6.066406 5.226562 -5.78125 5.5 -5.375 L 5.53125 -5.375 C 5.507812 -5.875 5.5 -6.359375 5.5 -6.828125 L 5.5 -9.125 L 6.078125 -9.125 L 6.078125 0 L 5.6875 0 L 5.546875 -0.96875 L 5.5 -0.96875 C 5.007812 -0.238281 4.3125 0.125 3.40625 0.125 C 2.53125 0.125 1.859375 -0.148438 1.390625 -0.703125 C 0.929688 -1.253906 0.703125 -2.050781 0.703125 -3.09375 C 0.703125 -4.195312 0.929688 -5.039062 1.390625 -5.625 C 1.847656 -6.207031 2.519531 -6.5 3.40625 -6.5 Z M 3.40625 -5.96875 C 2.707031 -5.96875 2.179688 -5.722656 1.828125 -5.234375 C 1.484375 -4.742188 1.3125 -4.035156 1.3125 -3.109375 C 1.3125 -1.304688 2.007812 -0.40625 3.40625 -0.40625 C 4.125 -0.40625 4.648438 -0.613281 4.984375 -1.03125 C 5.328125 -1.445312 5.5 -2.132812 5.5 -3.09375 L 5.5 -3.1875 C 5.5 -4.175781 5.332031 -4.882812 5 -5.3125 C 4.664062 -5.75 4.132812 -5.96875 3.40625 -5.96875 Z M 3.40625 -5.96875 "/></g></g><g transform="translate(237.603505, 267.046857)"><g><path d="M 1.578125 -6.375 L 1.578125 -2.25 C 1.578125 -1.601562 1.707031 -1.132812 1.96875 -0.84375 C 2.238281 -0.550781 2.660156 -0.40625 3.234375 -0.40625 C 3.984375 -0.40625 4.535156 -0.597656 4.890625 -0.984375 C 5.253906 -1.367188 5.4375 -1.992188 5.4375 -2.859375 L 5.4375 -6.375 L 6.015625 -6.375 L 6.015625 0 L 5.515625 0 L 5.421875 -0.875 L 5.375 -0.875 C 4.96875 -0.207031 4.234375 0.125 3.171875 0.125 C 1.722656 0.125 1 -0.648438 1 -2.203125 L 1 -6.375 Z M 1.578125 -6.375 "/></g></g><g transform="translate(244.681629, 267.046857)"><g><path d="M 3.609375 0.125 C 2.703125 0.125 1.988281 -0.160156 1.46875 -0.734375 C 0.957031 -1.316406 0.703125 -2.117188 0.703125 -3.140625 C 0.703125 -4.203125 0.96875 -5.023438 1.5 -5.609375 C 2.03125 -6.203125 2.765625 -6.5 3.703125 -6.5 C 4.253906 -6.5 4.78125 -6.398438 5.28125 -6.203125 L 5.125 -5.6875 C 4.570312 -5.875 4.09375 -5.96875 3.6875 -5.96875 C 2.90625 -5.96875 2.3125 -5.722656 1.90625 -5.234375 C 1.507812 -4.753906 1.3125 -4.0625 1.3125 -3.15625 C 1.3125 -2.300781 1.507812 -1.628906 1.90625 -1.140625 C 2.3125 -0.648438 2.875 -0.40625 3.59375 -0.40625 C 4.175781 -0.40625 4.710938 -0.507812 5.203125 -0.71875 L 5.203125 -0.1875 C 4.796875 0.0195312 4.265625 0.125 3.609375 0.125 Z M 3.609375 0.125 "/></g></g><g transform="translate(250.382801, 267.046857)"><g><path d="M 2.75 -0.40625 C 3.113281 -0.40625 3.429688 -0.4375 3.703125 -0.5 L 3.703125 -0.03125 C 3.421875 0.0703125 3.097656 0.125 2.734375 0.125 C 2.171875 0.125 1.753906 -0.0234375 1.484375 -0.328125 C 1.222656 -0.628906 1.09375 -1.101562 1.09375 -1.75 L 1.09375 -5.859375 L 0.140625 -5.859375 L 0.140625 -6.203125 L 1.09375 -6.46875 L 1.390625 -7.90625 L 1.6875 -7.90625 L 1.6875 -6.375 L 3.546875 -6.375 L 3.546875 -5.859375 L 1.6875 -5.859375 L 1.6875 -1.828125 C 1.6875 -1.347656 1.769531 -0.988281 1.9375 -0.75 C 2.113281 -0.519531 2.382812 -0.40625 2.75 -0.40625 Z M 2.75 -0.40625 "/></g></g></g></svg>