<svg xmlns="http://www.w3.org/2000/svg" xmlns:xlink="http://www.w3.org/1999/xlink" width="500" zoomAndPan="magnify" viewBox="0 0 375 374.999991" height="500" preserveAspectRatio="xMidYMid meet" version="1.0"><defs><g/><clipPath id="1af6d9c208"><path d="M 89.820312 89.496094 L 250.320312 89.496094 L 250.320312 249.996094 L 89.820312 249.996094 Z M 89.820312 89.496094 " clip-rule="nonzero"/></clipPath><clipPath id="b6ee417d6a"><path d="M 148 141 L 175 141 L 175 159.921875 L 148 159.921875 Z M 148 141 " clip-rule="nonzero"/></clipPath></defs><g clip-path="url(#1af6d9c208)"><path fill="#0f3537" d="M 245.230469 191.0625 C 243.195312 197.984375 240.09375 204.550781 236.238281 210.597656 C 233.058594 215.519531 229.445312 220.144531 225.378906 224.351562 C 224.855469 224.929688 224.265625 225.441406 223.710938 225.984375 C 223.140625 226.519531 222.589844 227.066406 222.011719 227.589844 L 220.25 229.121094 L 219.371094 229.886719 L 218.457031 230.613281 L 216.632812 232.070312 C 216.011719 232.542969 215.375 232.988281 214.75 233.453125 C 213.511719 234.398438 212.195312 235.230469 210.90625 236.109375 C 210.722656 236.234375 210.527344 236.363281 210.324219 236.5 C 210.113281 236.628906 209.894531 236.757812 209.667969 236.894531 C 209.210938 237.167969 208.722656 237.460938 208.203125 237.769531 C 207.171875 238.417969 205.953125 239.027344 204.640625 239.726562 C 204.308594 239.898438 203.976562 240.082031 203.625 240.25 C 203.273438 240.414062 202.917969 240.582031 202.550781 240.75 C 201.820312 241.085938 201.0625 241.4375 200.28125 241.796875 C 198.679688 242.425781 197.007812 243.175781 195.1875 243.761719 C 187.992188 246.367188 179.015625 247.980469 170.003906 248.019531 C 160.996094 247.980469 152.019531 246.367188 144.824219 243.761719 C 143.003906 243.175781 141.332031 242.425781 139.730469 241.796875 C 138.949219 241.4375 138.191406 241.085938 137.460938 240.75 C 137.09375 240.582031 136.734375 240.414062 136.382812 240.25 C 136.035156 240.082031 135.703125 239.898438 135.371094 239.726562 C 134.058594 239.027344 132.839844 238.417969 131.808594 237.773438 C 131.289062 237.460938 130.800781 237.167969 130.34375 236.894531 C 130.117188 236.757812 129.898438 236.628906 129.6875 236.5 C 129.484375 236.363281 129.289062 236.234375 129.105469 236.109375 C 124.210938 232.902344 119.613281 229.257812 115.433594 225.164062 C 111.023438 220.761719 107.167969 215.828125 103.769531 210.597656 C 99.917969 204.550781 96.8125 197.984375 94.78125 191.0625 C 92.664062 184.160156 91.683594 176.921875 91.621094 169.679688 C 91.683594 162.4375 92.664062 155.199219 94.78125 148.300781 C 96.8125 141.378906 99.917969 134.8125 103.769531 128.761719 C 106.949219 123.839844 110.566406 119.214844 114.628906 115.007812 C 115.15625 114.433594 115.742188 113.917969 116.300781 113.375 C 116.867188 112.84375 117.417969 112.292969 118 111.773438 L 119.761719 110.242188 L 120.640625 109.472656 L 121.554688 108.75 L 123.378906 107.289062 C 123.996094 106.816406 124.636719 106.371094 125.261719 105.910156 C 126.496094 104.960938 127.8125 104.128906 129.101562 103.253906 C 129.289062 103.128906 129.484375 102.996094 129.6875 102.859375 C 129.898438 102.734375 130.117188 102.601562 130.34375 102.464844 C 130.796875 102.191406 131.289062 101.902344 131.808594 101.589844 C 132.839844 100.941406 134.054688 100.332031 135.371094 99.632812 C 135.703125 99.464844 136.035156 99.277344 136.382812 99.109375 C 136.734375 98.945312 137.09375 98.78125 137.460938 98.609375 C 138.191406 98.273438 138.949219 97.921875 139.730469 97.5625 C 141.332031 96.9375 143.003906 96.183594 144.824219 95.601562 C 152.019531 92.992188 160.996094 91.378906 170.003906 91.339844 C 179.015625 91.378906 187.992188 92.992188 195.1875 95.601562 C 197.007812 96.183594 198.679688 96.9375 200.28125 97.5625 C 201.0625 97.921875 201.820312 98.273438 202.550781 98.609375 C 202.914062 98.78125 203.273438 98.945312 203.625 99.109375 C 203.976562 99.277344 204.308594 99.464844 204.636719 99.632812 C 205.953125 100.332031 207.171875 100.941406 208.199219 101.589844 C 208.722656 101.902344 209.210938 102.191406 209.667969 102.464844 C 209.894531 102.601562 210.113281 102.734375 210.320312 102.859375 C 210.527344 102.996094 210.722656 103.128906 210.90625 103.25 C 215.800781 106.460938 220.398438 110.101562 224.578125 114.195312 C 228.988281 118.597656 232.839844 123.53125 236.238281 128.761719 C 240.09375 134.8125 243.195312 141.378906 245.230469 148.300781 C 247.347656 155.199219 248.324219 162.4375 248.386719 169.679688 C 248.324219 176.921875 247.347656 184.160156 245.230469 191.0625 Z M 250.191406 169.628906 L 250.1875 169.621094 C 250.121094 162.226562 249.128906 154.828125 246.972656 147.773438 C 244.902344 140.699219 241.730469 133.984375 237.773438 127.8125 L 235.875 124.957031 C 235.875 124.957031 235.324219 124.1875 234.5 123.035156 C 233.707031 121.859375 232.492188 120.410156 231.332031 118.917969 C 230.082031 117.5 228.882812 116.039062 227.875 115.042969 C 226.894531 114.019531 226.242188 113.339844 226.242188 113.339844 C 226.242188 113.339844 226.078125 113.171875 225.777344 112.886719 C 225.480469 112.597656 225.058594 112.1875 224.550781 111.695312 C 223.554688 110.683594 222.113281 109.464844 220.699219 108.214844 C 219.972656 107.613281 219.226562 107.035156 218.539062 106.480469 C 218.191406 106.203125 217.855469 105.9375 217.539062 105.683594 C 217.210938 105.445312 216.898438 105.222656 216.613281 105.015625 C 215.464844 104.1875 214.699219 103.636719 214.699219 103.636719 C 214.699219 103.636719 214.53125 103.5 214.261719 103.324219 C 213.992188 103.144531 213.636719 102.910156 213.28125 102.667969 C 212.570312 102.191406 211.855469 101.714844 211.855469 101.714844 C 211.667969 101.585938 211.46875 101.453125 211.261719 101.3125 C 211.046875 101.183594 210.824219 101.046875 210.589844 100.90625 C 210.125 100.628906 209.625 100.328125 209.09375 100.007812 C 208.039062 99.34375 206.792969 98.71875 205.449219 98 C 205.113281 97.824219 204.773438 97.636719 204.414062 97.464844 C 204.054688 97.296875 203.6875 97.125 203.316406 96.949219 C 202.566406 96.605469 201.792969 96.246094 200.992188 95.875 C 199.351562 95.230469 197.644531 94.460938 195.777344 93.863281 C 188.417969 91.1875 179.222656 89.53125 170.003906 89.496094 C 160.785156 89.53125 151.59375 91.1875 144.230469 93.863281 C 142.367188 94.460938 140.65625 95.230469 139.019531 95.875 C 138.21875 96.246094 137.445312 96.605469 136.695312 96.949219 C 136.320312 97.125 135.957031 97.296875 135.59375 97.464844 C 135.238281 97.636719 134.898438 97.824219 134.558594 98 C 133.214844 98.71875 131.96875 99.34375 130.917969 100.007812 C 130.386719 100.328125 129.886719 100.628906 129.417969 100.90625 C 129.1875 101.046875 128.964844 101.183594 128.75 101.3125 C 128.542969 101.453125 128.34375 101.585938 128.152344 101.714844 C 128.152344 101.714844 127.441406 102.191406 126.726562 102.667969 C 126.371094 102.910156 126.015625 103.144531 125.75 103.324219 C 125.480469 103.5 125.3125 103.636719 125.3125 103.636719 C 125.3125 103.636719 124.546875 104.1875 123.398438 105.015625 C 123.113281 105.222656 122.800781 105.445312 122.472656 105.683594 C 122.152344 105.9375 121.820312 106.203125 121.472656 106.480469 C 120.785156 107.035156 120.035156 107.613281 119.3125 108.214844 C 117.894531 109.464844 116.453125 110.683594 115.460938 111.695312 C 114.953125 112.1875 114.527344 112.597656 114.230469 112.886719 C 113.933594 113.171875 113.769531 113.339844 113.769531 113.339844 C 113.769531 113.339844 113.117188 114.019531 112.136719 115.042969 C 111.128906 116.039062 109.929688 117.5 108.679688 118.917969 C 107.519531 120.410156 106.304688 121.859375 105.511719 123.035156 C 104.6875 124.1875 104.136719 124.957031 104.136719 124.957031 L 102.234375 127.8125 C 98.28125 133.984375 95.109375 140.699219 93.035156 147.773438 C 90.882812 154.828125 89.886719 162.226562 89.820312 169.621094 L 89.820312 169.738281 C 89.886719 177.132812 90.882812 184.53125 93.035156 191.585938 C 95.109375 198.660156 98.28125 205.378906 102.234375 211.546875 L 104.136719 214.402344 C 104.136719 214.402344 104.6875 215.171875 105.511719 216.324219 C 106.304688 217.503906 107.519531 218.953125 108.679688 220.445312 C 109.929688 221.859375 111.128906 223.320312 112.136719 224.316406 C 113.117188 225.339844 113.769531 226.019531 113.769531 226.019531 C 113.769531 226.019531 113.933594 226.191406 114.230469 226.476562 C 114.527344 226.761719 114.953125 227.171875 115.460938 227.664062 C 116.453125 228.675781 117.894531 229.894531 119.3125 231.144531 C 120.035156 231.75 120.785156 232.328125 121.472656 232.882812 C 121.820312 233.15625 122.152344 233.421875 122.472656 233.675781 C 122.800781 233.914062 123.113281 234.136719 123.398438 234.34375 C 124.546875 235.175781 125.3125 235.726562 125.3125 235.726562 C 125.3125 235.726562 125.480469 235.863281 125.75 236.035156 C 126.015625 236.214844 126.371094 236.453125 126.726562 236.691406 C 127.441406 237.167969 128.152344 237.644531 128.152344 237.644531 C 128.34375 237.773438 128.542969 237.90625 128.75 238.046875 C 128.964844 238.179688 129.1875 238.3125 129.421875 238.453125 C 129.886719 238.734375 130.386719 239.035156 130.917969 239.351562 C 131.96875 240.015625 133.214844 240.644531 134.5625 241.359375 C 134.898438 241.535156 135.238281 241.726562 135.597656 241.898438 C 135.957031 242.066406 136.324219 242.238281 136.695312 242.410156 C 137.445312 242.757812 138.21875 243.117188 139.019531 243.488281 C 140.65625 244.128906 142.367188 244.898438 144.230469 245.5 C 151.59375 248.171875 160.785156 249.828125 170.003906 249.867188 C 179.222656 249.828125 188.417969 248.171875 195.777344 245.5 C 197.644531 244.898438 199.351562 244.128906 200.992188 243.484375 C 201.792969 243.117188 202.566406 242.757812 203.316406 242.410156 C 203.6875 242.234375 204.054688 242.066406 204.414062 241.898438 C 204.773438 241.726562 205.113281 241.535156 205.449219 241.359375 C 206.796875 240.644531 208.042969 240.015625 209.09375 239.351562 C 209.625 239.035156 210.125 238.734375 210.589844 238.453125 C 210.824219 238.3125 211.046875 238.179688 211.261719 238.046875 C 211.46875 237.90625 211.667969 237.773438 211.859375 237.644531 C 211.859375 237.644531 212.570312 237.167969 213.28125 236.691406 C 213.636719 236.453125 213.996094 236.214844 214.261719 236.035156 C 214.53125 235.863281 214.699219 235.726562 214.699219 235.726562 C 214.699219 235.726562 215.464844 235.175781 216.613281 234.34375 C 216.898438 234.136719 217.210938 233.914062 217.539062 233.675781 C 217.855469 233.421875 218.191406 233.15625 218.539062 232.882812 C 219.226562 232.328125 219.972656 231.75 220.699219 231.144531 C 222.113281 229.894531 223.554688 228.675781 224.550781 227.664062 C 225.058594 227.171875 225.480469 226.761719 225.777344 226.476562 C 226.078125 226.191406 226.242188 226.019531 226.242188 226.019531 C 226.242188 226.019531 226.894531 225.339844 227.875 224.316406 C 228.882812 223.320312 230.082031 221.859375 231.332031 220.445312 C 232.492188 218.953125 233.707031 217.503906 234.5 216.324219 C 235.324219 215.171875 235.875 214.402344 235.875 214.402344 L 237.773438 211.546875 C 241.730469 205.378906 244.902344 198.660156 246.972656 191.585938 C 249.128906 184.53125 250.121094 177.132812 250.1875 169.738281 L 250.191406 169.734375 L 250.191406 169.628906 " fill-opacity="1" fill-rule="nonzero"/></g><g fill="#ff914d" fill-opacity="1"><g transform="translate(124.085006, 178.219589)"><g><path d="M 0.285156 -18.976562 L 0.285156 0 L 5.984375 0 L 5.984375 -6.628906 L 10.410156 -6.628906 L 10.410156 -12.328125 L 5.984375 -12.328125 L 5.984375 -13.277344 L 11.550781 -13.277344 L 11.550781 -18.976562 Z M 0.285156 -18.976562 "/></g></g></g><g fill="#ff914d" fill-opacity="1"><g transform="translate(135.919593, 178.219589)"><g><path d="M 0.285156 0 L 5.984375 0 L 5.984375 -7.179688 L 8.28125 0 L 13.832031 0.0195312 L 11.019531 -8.339844 C 11.96875 -8.949219 13.164062 -10.316406 13.164062 -13.03125 C 13.164062 -17.476562 9.5 -18.976562 6.972656 -18.976562 L 0.285156 -18.976562 Z M 6.460938 -13.660156 C 7.769531 -13.601562 7.65625 -10.90625 6.441406 -10.921875 L 5.984375 -10.921875 L 5.984375 -13.679688 Z M 6.460938 -13.660156 "/></g></g></g><g fill="#ff914d" fill-opacity="1"><g transform="translate(149.349852, 178.219589)"><g><path d="M 11.550781 0 L 11.550781 -5.699219 L 5.984375 -5.699219 L 5.984375 -6.628906 L 10.410156 -6.628906 L 10.410156 -12.328125 L 5.984375 -12.328125 L 5.984375 -13.277344 L 11.550781 -13.277344 L 11.550781 -18.976562 L 0.285156 -18.976562 L 0.285156 0 Z M 11.550781 0 "/></g></g></g><g fill="#ff914d" fill-opacity="1"><g transform="translate(161.184438, 178.219589)"><g><path d="M 11.550781 0 L 11.550781 -5.699219 L 5.984375 -5.699219 L 5.984375 -6.628906 L 10.410156 -6.628906 L 10.410156 -12.328125 L 5.984375 -12.328125 L 5.984375 -13.277344 L 11.550781 -13.277344 L 11.550781 -18.976562 L 0.285156 -18.976562 L 0.285156 0 Z M 11.550781 0 "/></g></g></g><path fill="#5271ff" d="M 207.28125 111.566406 C 207.28125 111.566406 209.480469 122.820312 212.617188 124.214844 C 216.730469 126.042969 223.390625 120.457031 230.300781 127.566406 C 230.300781 127.566406 216.050781 129.277344 205.46875 141.320312 C 204.695312 138.417969 206.929688 133.195312 206.929688 133.195312 C 203.175781 137.457031 202.382812 143.101562 200.117188 144.96875 C 194.675781 149.457031 176.929688 150.027344 176.929688 150.027344 C 170.242188 148.832031 173.234375 134.359375 150.054688 146.070312 C 150.054688 146.070312 151.175781 138.980469 156.921875 133.574219 C 159.386719 131.253906 151.300781 129.242188 155.746094 128.234375 C 159.554688 127.371094 185.78125 128.914062 188.101562 129.175781 C 190.007812 129.386719 190.550781 131.898438 188.90625 132.886719 C 188.878906 132.902344 188.851562 132.917969 188.824219 132.933594 C 187.828125 133.515625 184.589844 135.421875 184.589844 135.421875 C 184.589844 135.421875 186.605469 138.117188 187.429688 138.863281 C 191.484375 142.539062 197.011719 139.070312 198.34375 136.625 C 201.253906 131.269531 201.679688 112.484375 201.679688 112.484375 C 200.957031 108.96875 203.21875 105.53125 206.734375 104.808594 L 210.28125 104.082031 C 212.292969 103.667969 214.238281 105.050781 214.5 107.089844 C 214.753906 109.039062 213.375 110.820312 211.425781 111.058594 L 207.28125 111.566406 " fill-opacity="1" fill-rule="nonzero"/><path fill="#5271ff" d="M 207.945312 149.015625 L 204.894531 149.320312 C 204.546875 149.355469 204.234375 149.101562 204.203125 148.753906 L 204.15625 148.304688 C 204.121094 147.957031 204.375 147.648438 204.722656 147.613281 L 207.777344 147.308594 C 208.125 147.277344 208.433594 147.527344 208.46875 147.878906 L 208.511719 148.324219 C 208.546875 148.671875 208.292969 148.984375 207.945312 149.015625 " fill-opacity="1" fill-rule="nonzero"/><path fill="#5271ff" d="M 146.832031 154.488281 L 143.78125 154.792969 C 143.433594 154.828125 143.121094 154.574219 143.085938 154.226562 L 143.042969 153.777344 C 143.007812 153.429688 143.261719 153.121094 143.609375 153.085938 L 146.664062 152.78125 C 147.011719 152.746094 147.320312 153 147.355469 153.347656 L 147.398438 153.796875 C 147.433594 154.144531 147.179688 154.457031 146.832031 154.488281 " fill-opacity="1" fill-rule="nonzero"/><path fill="#5271ff" d="M 221.363281 141.796875 C 219.214844 142.238281 217.117188 140.855469 216.675781 138.707031 C 216.234375 136.558594 217.617188 134.460938 219.765625 134.019531 C 221.914062 133.578125 224.011719 134.960938 224.453125 137.109375 C 224.894531 139.257812 223.511719 141.355469 221.363281 141.796875 Z M 230.800781 135.121094 C 230.324219 132.800781 229.121094 130.816406 227.480469 129.355469 C 222.691406 130.261719 216.039062 132.253906 209.859375 136.625 C 209.808594 137.527344 209.867188 138.453125 210.058594 139.378906 C 210.164062 139.898438 210.308594 140.394531 210.484375 140.875 L 215.894531 140.339844 C 216.363281 140.292969 216.785156 140.636719 216.832031 141.109375 C 216.878906 141.582031 216.535156 142 216.0625 142.046875 L 210.269531 142.621094 L 209.316406 142.71875 C 208.84375 142.765625 208.5 143.183594 208.546875 143.65625 C 208.59375 144.128906 209.015625 144.472656 209.488281 144.425781 L 212.386719 144.136719 L 220.558594 143.324219 C 221.03125 143.277344 221.453125 143.625 221.5 144.09375 C 221.546875 144.566406 221.199219 144.988281 220.730469 145.035156 L 211.375 145.964844 L 210.433594 146.054688 C 209.960938 146.101562 209.617188 146.523438 209.664062 146.996094 C 209.710938 147.464844 210.132812 147.8125 210.601562 147.765625 L 216.699219 147.160156 C 218.507812 147.839844 220.527344 148.039062 222.558594 147.621094 C 228.285156 146.441406 231.976562 140.847656 230.800781 135.121094 " fill-opacity="1" fill-rule="nonzero"/><g clip-path="url(#b6ee417d6a)"><path fill="#5271ff" d="M 165.136719 153.34375 C 162.988281 153.785156 160.890625 152.402344 160.449219 150.253906 C 160.007812 148.109375 161.390625 146.011719 163.539062 145.570312 C 165.6875 145.128906 167.785156 146.511719 168.226562 148.660156 C 168.667969 150.804688 167.285156 152.902344 165.136719 153.34375 Z M 156.277344 141.78125 C 154.285156 144.03125 153.273438 147.105469 153.71875 150.265625 L 156.105469 150.03125 C 156.574219 149.984375 156.996094 150.328125 157.042969 150.800781 C 157.089844 151.273438 156.746094 151.691406 156.273438 151.738281 L 149.527344 152.410156 C 149.058594 152.457031 148.710938 152.875 148.757812 153.347656 C 148.804688 153.820312 149.226562 154.164062 149.699219 154.117188 L 154.773438 153.613281 L 160.769531 153.015625 C 161.242188 152.96875 161.664062 153.3125 161.710938 153.785156 C 161.757812 154.257812 161.414062 154.675781 160.941406 154.722656 L 154.308594 155.382812 L 150.644531 155.746094 C 150.171875 155.792969 149.828125 156.214844 149.875 156.683594 C 149.921875 157.15625 150.34375 157.5 150.816406 157.453125 L 157.285156 156.8125 C 159.6875 158.882812 162.988281 159.855469 166.332031 159.167969 C 170.621094 158.289062 173.765625 154.929688 174.582031 150.894531 C 170.636719 147.671875 172.320312 138.433594 156.277344 141.78125 " fill-opacity="1" fill-rule="nonzero"/></g><path fill="#5271ff" d="M 201.679688 112.484375 L 196.992188 114.332031 C 196.238281 114.632812 195.417969 114.074219 195.417969 113.261719 C 195.417969 112.789062 195.703125 112.367188 196.140625 112.191406 L 204.175781 108.957031 L 201.679688 112.484375 " fill-opacity="1" fill-rule="nonzero"/><path fill="#5271ff" d="M 170.933594 108.300781 C 171.339844 107.910156 171.570312 107.339844 171.496094 106.714844 C 171.394531 105.859375 170.695312 105.164062 169.835938 105.070312 C 168.699219 104.945312 167.734375 105.832031 167.734375 106.945312 C 167.734375 107.476562 167.957031 107.957031 168.3125 108.300781 C 165.253906 108.605469 162.507812 109.964844 160.4375 112.011719 L 163.664062 112.011719 C 164.21875 112.011719 164.699219 112.4375 164.714844 112.988281 C 164.730469 113.558594 164.273438 114.023438 163.707031 114.023438 L 152.632812 114.023438 C 152.078125 114.023438 151.628906 114.476562 151.628906 115.03125 C 151.628906 115.589844 152.078125 116.039062 152.632812 116.039062 L 160.945312 116.039062 C 161.5 116.039062 161.980469 116.464844 161.996094 117.015625 C 162.011719 117.585938 161.554688 118.054688 160.988281 118.054688 L 148.390625 118.054688 C 147.832031 118.054688 147.382812 118.503906 147.382812 119.058594 C 147.382812 119.617188 147.832031 120.066406 148.390625 120.066406 L 156.617188 120.066406 C 156.578125 120.472656 156.558594 120.886719 156.558594 121.300781 L 156.558594 122.96875 L 170.890625 122.96875 L 168.832031 120.910156 C 168.054688 121.296875 167.082031 121.167969 166.429688 120.519531 L 163.992188 118.078125 C 163.8125 117.898438 163.8125 117.609375 163.992188 117.429688 L 164.070312 117.351562 C 164.25 117.171875 164.542969 117.171875 164.722656 117.351562 L 166.546875 119.179688 L 166.96875 118.757812 L 165.140625 116.933594 C 164.960938 116.753906 164.960938 116.460938 165.140625 116.28125 C 165.320312 116.101562 165.613281 116.101562 165.792969 116.28125 L 167.617188 118.105469 L 168.039062 117.6875 L 166.210938 115.859375 C 166.03125 115.679688 166.03125 115.390625 166.210938 115.210938 L 166.289062 115.132812 C 166.46875 114.953125 166.761719 114.953125 166.941406 115.132812 L 169.378906 117.570312 C 170.027344 118.21875 170.160156 119.191406 169.769531 119.972656 L 172.765625 122.96875 L 178.714844 122.96875 L 175.878906 120.132812 C 174.117188 120.441406 172.933594 119.273438 172.277344 118.539062 C 171.511719 117.679688 171.460938 116.402344 172.277344 115.589844 C 173.089844 114.777344 174.363281 114.824219 175.222656 115.589844 C 175.960938 116.246094 177.128906 117.429688 176.820312 119.195312 L 180.59375 122.96875 L 182.6875 122.96875 L 182.6875 121.300781 C 182.6875 114.527344 177.53125 108.960938 170.933594 108.300781 " fill-opacity="1" fill-rule="nonzero"/><path fill="#5271ff" d="M 153.296875 125.339844 C 153.296875 125.882812 153.734375 126.324219 154.277344 126.324219 L 184.96875 126.324219 C 185.507812 126.324219 185.949219 125.882812 185.949219 125.339844 C 185.949219 124.796875 185.507812 124.359375 184.96875 124.359375 L 154.277344 124.359375 C 153.734375 124.359375 153.296875 124.796875 153.296875 125.339844 " fill-opacity="1" fill-rule="nonzero"/><path stroke-linecap="round" transform="matrix(0.75, 0, 0, 0.75, 102.918756, 196.659786)" fill="none" stroke-linejoin="miter" d="M 4.49895 4.500494 L 40.905203 4.500494 " stroke="#166a6d" stroke-width="9" stroke-opacity="1" stroke-miterlimit="4"/><path stroke-linecap="round" transform="matrix(0.75, 0, 0, 0.75, 113.418213, 207.159786)" fill="none" stroke-linejoin="miter" d="M 1.999674 2.000494 L 26.405926 2.000494 " stroke="#166a6d" stroke-width="4" stroke-opacity="1" stroke-miterlimit="4"/><path stroke-linecap="round" transform="matrix(0.75, 0, 0, 0.75, 107.568689, 207.159786)" fill="none" stroke-linejoin="miter" d="M 2.002165 2.000494 L 4.007374 2.000494 " stroke="#166a6d" stroke-width="4" stroke-opacity="1" stroke-miterlimit="4"/><path stroke-linecap="round" transform="matrix(0.75, 0, 0, 0.75, 102.918756, 203.409786)" fill="none" stroke-linejoin="miter" d="M 2.49895 2.500494 L 34.905202 2.500494 " stroke="#ffffff" stroke-width="5" stroke-opacity="1" stroke-miterlimit="4"/><g fill="#ff914d" fill-opacity="1"><g transform="translate(138.71005, 201.63482)"><g><path d="M 3.109375 -11.425781 L 0.546875 -11.425781 L 0.546875 0 L 3.109375 0 C 5.53125 0 6.878906 -2.058594 6.878906 -5.714844 C 6.878906 -9.371094 5.53125 -11.425781 3.109375 -11.425781 Z M 3.472656 -2.855469 L 2.925781 -2.855469 L 2.925781 -8.570312 L 3.472656 -8.570312 C 4.183594 -8.570312 4.59375 -7.542969 4.59375 -5.714844 C 4.59375 -3.886719 4.183594 -2.855469 3.472656 -2.855469 Z M 3.472656 -2.855469 "/></g></g></g><g fill="#ff914d" fill-opacity="1"><g transform="translate(152.646589, 201.63482)"><g><path d="M 2.925781 -8.753906 L 5.988281 -8.753906 L 5.988281 -11.425781 L 0.546875 -11.425781 L 0.546875 0 L 5.988281 0 L 5.988281 -2.695312 L 2.925781 -2.695312 L 2.925781 -4.410156 L 5.988281 -4.410156 L 5.988281 -7.039062 L 2.925781 -7.039062 Z M 2.925781 -8.753906 "/></g></g></g><g fill="#ff914d" fill-opacity="1"><g transform="translate(165.783324, 201.63482)"><g><path d="M 5.988281 -2.855469 L 2.925781 -2.855469 L 2.925781 -11.425781 L 0.546875 -11.425781 L 0.546875 0 L 5.988281 0 Z M 5.988281 -2.855469 "/></g></g></g><g fill="#ff914d" fill-opacity="1"><g transform="translate(178.85151, 201.63482)"><g><path d="M 2.925781 -11.425781 L 0.546875 -11.425781 L 0.546875 0 L 2.925781 0 Z M 2.925781 -11.425781 "/></g></g></g><g fill="#ff914d" fill-opacity="1"><g transform="translate(188.926138, 201.63482)"><g><path d="M 2.628906 -11.425781 L 4.160156 -4.867188 L 5.714844 -11.425781 L 8.136719 -11.425781 L 5.300781 0 L 3.015625 0 L 0.207031 -11.425781 Z M 2.628906 -11.425781 "/></g></g></g><g fill="#ff914d" fill-opacity="1"><g transform="translate(203.890998, 201.63482)"><g><path d="M 2.925781 -8.753906 L 5.988281 -8.753906 L 5.988281 -11.425781 L 0.546875 -11.425781 L 0.546875 0 L 5.988281 0 L 5.988281 -2.695312 L 2.925781 -2.695312 L 2.925781 -4.410156 L 5.988281 -4.410156 L 5.988281 -7.039062 L 2.925781 -7.039062 Z M 2.925781 -8.753906 "/></g></g></g><g fill="#ff914d" fill-opacity="1"><g transform="translate(217.027733, 201.63482)"><g><path d="M 5.875 -4.9375 C 6.535156 -5.53125 6.878906 -6.492188 6.878906 -7.769531 C 6.878906 -10.101562 5.78125 -11.425781 3.792969 -11.425781 L 0.546875 -11.425781 L 0.546875 0 L 2.925781 0 L 2.925781 -4.066406 L 3.609375 -4.066406 C 4.273438 -3.792969 4.640625 -3.132812 4.640625 -2.125 L 4.640625 0 L 6.832031 0 L 6.832031 -1.898438 C 6.832031 -3.246094 6.511719 -4.273438 5.875 -4.9375 Z M 3.839844 -6.695312 L 2.925781 -6.695312 L 2.925781 -8.753906 L 3.839844 -8.753906 C 4.433594 -8.753906 4.777344 -8.363281 4.777344 -7.703125 C 4.777344 -7.0625 4.433594 -6.695312 3.839844 -6.695312 Z M 3.839844 -6.695312 "/></g></g></g><g fill="#ff914d" fill-opacity="1"><g transform="translate(230.987126, 201.63482)"><g><path d="M 7.289062 -11.425781 L 4.820312 -11.425781 L 3.746094 -7.40625 L 2.675781 -11.425781 L 0.207031 -11.425781 L 2.558594 -4.683594 L 2.558594 0 L 4.9375 0 L 4.9375 -4.683594 Z M 7.289062 -11.425781 "/></g></g></g></svg>