<svg xmlns="http://www.w3.org/2000/svg" xmlns:xlink="http://www.w3.org/1999/xlink" width="500" zoomAndPan="magnify" viewBox="0 0 375 374.999991" height="500" preserveAspectRatio="xMidYMid meet" version="1.0"><defs><clipPath id="01cea959dc"><path d="M 153 101.957031 L 226.96875 101.957031 L 226.96875 212.957031 L 153 212.957031 Z M 153 101.957031 " clip-rule="nonzero"/></clipPath></defs><g clip-path="url(#01cea959dc)"><path fill="#9365b8" d="M 214.246094 212.957031 C 216.285156 206.480469 216.929688 199.730469 216.207031 193.128906 L 216.207031 192.855469 L 163.527344 192.855469 L 163.527344 193.128906 C 162.832031 199.730469 163.453125 206.503906 165.492188 212.957031 L 155.003906 212.957031 C 153.242188 206.058594 152.746094 198.960938 153.515625 191.988281 C 154.359375 184.046875 156.894531 176.230469 160.96875 169.132812 C 164.695312 162.730469 169.070312 158.015625 173.789062 154.367188 C 174.910156 153.449219 176.125 152.605469 177.320312 151.761719 C 175.207031 150.496094 173.292969 148.957031 171.601562 147.195312 C 167.03125 142.328125 164.269531 135.878906 164.269531 128.757812 C 164.269531 121.734375 167.03125 115.183594 171.601562 110.394531 C 176.101562 105.527344 182.460938 102.453125 189.570312 102.03125 L 189.84375 101.957031 L 190.117188 102.03125 C 197.222656 102.453125 203.558594 105.554688 208.082031 110.394531 C 212.65625 115.183594 215.414062 121.710938 215.414062 128.757812 C 215.414062 135.855469 212.65625 142.332031 208.082031 147.195312 C 206.394531 148.957031 204.480469 150.496094 202.367188 151.761719 C 203.5625 152.605469 204.753906 153.449219 205.894531 154.367188 C 210.617188 158.015625 214.988281 162.730469 218.71875 169.132812 C 222.792969 176.230469 225.328125 184.046875 226.171875 191.988281 C 226.941406 198.960938 226.445312 206.058594 224.679688 212.957031 Z M 213.898438 182.707031 C 212.90625 179.753906 211.5625 176.949219 210.023438 174.195312 C 206.988281 168.984375 203.460938 165.1875 199.734375 162.234375 C 196.628906 159.777344 193.246094 157.792969 189.867188 156.105469 C 186.488281 157.792969 183.183594 159.753906 180 162.234375 C 176.273438 165.1875 172.746094 168.984375 169.714844 174.195312 C 168.171875 176.949219 166.832031 179.753906 165.835938 182.707031 Z M 178.933594 140.296875 C 181.695312 143.25 185.542969 145.160156 189.84375 145.507812 C 194.140625 145.160156 198.019531 143.25 200.75 140.296875 C 203.558594 137.269531 205.324219 133.273438 205.324219 128.757812 C 205.324219 124.3125 203.558594 120.316406 200.75 117.292969 C 197.992188 114.339844 194.140625 112.429688 189.84375 112.082031 C 185.542969 112.429688 181.667969 114.339844 178.933594 117.292969 C 176.125 120.320312 174.363281 124.3125 174.363281 128.757812 C 174.386719 133.25 176.125 137.269531 178.933594 140.296875 Z M 178.933594 140.296875 " fill-opacity="1" fill-rule="nonzero"/></g></svg>