<svg xmlns="http://www.w3.org/2000/svg" xmlns:xlink="http://www.w3.org/1999/xlink" width="100" zoomAndPan="magnify" viewBox="0 0 75 74.999997" height="100" preserveAspectRatio="xMidYMid meet" version="1.0"><defs><clipPath id="ff18c5a195"><path d="M 24 19.789062 L 75 19.789062 L 75 37 L 24 37 Z M 24 19.789062 " clip-rule="nonzero"/></clipPath><clipPath id="5eaa8e8391"><path d="M 0 19.789062 L 31 19.789062 L 31 49.78125 L 0 49.78125 Z M 0 19.789062 " clip-rule="nonzero"/></clipPath></defs><g clip-path="url(#ff18c5a195)"><path fill="#ff9500" d="M 24.371094 19.78125 C 25.527344 20.5 26.605469 21.347656 27.59375 22.320312 C 30.941406 25.648438 32.785156 30.082031 32.785156 34.78125 C 32.785156 35.4375 32.753906 36.09375 32.679688 36.738281 L 74.980469 36.738281 L 74.980469 19.78125 Z M 24.371094 19.78125 " fill-opacity="1" fill-rule="nonzero"/></g><g clip-path="url(#5eaa8e8391)"><path fill="#5f2bb8" d="M 15.074219 19.78125 C 11.039062 19.78125 7.261719 21.347656 4.414062 24.171875 C 1.578125 27.007812 0.00390625 30.765625 0.00390625 34.78125 C 0.00390625 38.796875 1.578125 42.558594 4.414062 45.394531 C 7.261719 48.230469 11.039062 49.78125 15.074219 49.78125 C 19.109375 49.78125 22.886719 48.214844 25.734375 45.394531 C 28.585938 42.558594 30.144531 38.796875 30.144531 34.78125 C 30.144531 30.765625 28.570312 27.007812 25.734375 24.171875 C 22.886719 21.335938 19.109375 19.78125 15.074219 19.78125 Z M 15.074219 19.78125 " fill-opacity="1" fill-rule="nonzero"/></g><path fill="#ffffff" d="M 36.816406 23.78125 L 43.476562 23.78125 L 43.476562 25.707031 L 39.515625 25.707031 L 39.515625 27.273438 L 42.890625 27.273438 L 42.890625 29.082031 L 39.515625 29.082031 L 39.515625 32.738281 L 36.816406 32.738281 Z M 36.816406 23.78125 " fill-opacity="1" fill-rule="nonzero"/><path fill="#ffffff" d="M 49.742188 31.246094 L 46.683594 31.246094 L 46.265625 32.722656 L 43.519531 32.722656 L 46.789062 23.765625 L 49.730469 23.765625 L 52.996094 32.722656 L 50.179688 32.722656 Z M 49.175781 29.320312 L 48.214844 26.09375 L 47.269531 29.320312 Z M 49.175781 29.320312 " fill-opacity="1" fill-rule="nonzero"/><path fill="#ffffff" d="M 53.988281 29.765625 L 56.550781 29.601562 C 56.613281 30.035156 56.714844 30.347656 56.894531 30.574219 C 57.167969 30.929688 57.570312 31.109375 58.082031 31.109375 C 58.472656 31.109375 58.757812 31.019531 58.964844 30.828125 C 59.175781 30.648438 59.28125 30.425781 59.28125 30.183594 C 59.28125 29.945312 59.175781 29.753906 58.980469 29.558594 C 58.785156 29.378906 58.320312 29.199219 57.601562 29.035156 C 56.417969 28.765625 55.578125 28.394531 55.082031 27.945312 C 54.570312 27.5 54.316406 26.917969 54.316406 26.214844 C 54.316406 25.753906 54.453125 25.320312 54.707031 24.917969 C 54.960938 24.511719 55.351562 24.183594 55.875 23.945312 C 56.402344 23.707031 57.105469 23.589844 58.019531 23.589844 C 59.128906 23.589844 59.984375 23.796875 60.570312 24.230469 C 61.15625 24.648438 61.5 25.335938 61.621094 26.261719 L 59.085938 26.410156 C 59.027344 26.007812 58.875 25.707031 58.664062 25.527344 C 58.457031 25.347656 58.15625 25.261719 57.765625 25.261719 C 57.453125 25.261719 57.210938 25.335938 57.0625 25.46875 C 56.894531 25.601562 56.820312 25.765625 56.820312 25.960938 C 56.820312 26.109375 56.882812 26.230469 57.015625 26.347656 C 57.136719 26.46875 57.453125 26.574219 57.917969 26.679688 C 59.085938 26.929688 59.941406 27.199219 60.449219 27.46875 C 60.960938 27.738281 61.335938 28.066406 61.558594 28.453125 C 61.785156 28.84375 61.90625 29.289062 61.90625 29.78125 C 61.90625 30.347656 61.753906 30.886719 61.441406 31.363281 C 61.125 31.84375 60.707031 32.214844 60.152344 32.46875 C 59.59375 32.722656 58.890625 32.84375 58.050781 32.84375 C 56.566406 32.84375 55.546875 32.542969 54.976562 31.960938 C 54.390625 31.410156 54.0625 30.679688 53.988281 29.765625 Z M 53.988281 29.765625 " fill-opacity="1" fill-rule="nonzero"/><path fill="#ffffff" d="M 63.253906 23.78125 L 71.441406 23.78125 L 71.441406 25.992188 L 68.683594 25.992188 L 68.683594 32.738281 L 65.984375 32.738281 L 65.984375 25.992188 L 63.238281 25.992188 Z M 63.253906 23.78125 " fill-opacity="1" fill-rule="nonzero"/><path fill="#ffffff" d="M 6.976562 38.109375 L 6.871094 39.125 C 6.84375 39.484375 7.097656 39.765625 7.457031 39.765625 L 9.03125 39.765625 C 9.03125 39.140625 9.257812 38.558594 9.617188 38.09375 L 6.976562 38.09375 Z M 6.976562 38.109375 " fill-opacity="1" fill-rule="nonzero"/><path fill="#ffffff" d="M 27.59375 35.246094 L 25.734375 31.335938 C 25.644531 31.125 25.4375 31.007812 25.195312 31.007812 L 21.296875 31.007812 L 21.550781 28.320312 C 21.582031 27.960938 21.328125 27.679688 20.96875 27.679688 L 8.625 27.679688 C 8.328125 27.679688 8.042969 27.929688 8.011719 28.230469 L 7.816406 30.09375 L 8.535156 30.09375 L 8.714844 28.394531 L 20.800781 28.394531 L 19.949219 37.363281 L 19.917969 37.648438 L 19.871094 38.09375 L 13.785156 38.09375 C 14.160156 38.558594 14.371094 39.125 14.371094 39.765625 L 19.933594 39.765625 C 19.933594 38.304688 21.132812 37.109375 22.601562 37.109375 C 24.070312 37.109375 25.269531 38.304688 25.269531 39.765625 L 26.589844 39.765625 C 26.949219 39.765625 27.265625 39.484375 27.296875 39.125 L 27.625 35.558594 C 27.65625 35.453125 27.640625 35.335938 27.59375 35.246094 Z M 22.03125 34.527344 L 22.257812 32.183594 L 24.507812 32.183594 C 24.640625 32.183594 24.761719 32.261719 24.820312 32.378906 L 25.886719 34.527344 Z M 22.03125 34.527344 " fill-opacity="1" fill-rule="nonzero"/><path fill="#ffffff" d="M 11.699219 37.664062 C 10.53125 37.664062 9.570312 38.601562 9.570312 39.78125 C 9.570312 40.960938 10.515625 41.902344 11.699219 41.902344 C 12.886719 41.902344 13.828125 40.960938 13.828125 39.78125 C 13.828125 38.601562 12.886719 37.664062 11.699219 37.664062 Z M 11.699219 40.707031 C 11.175781 40.707031 10.753906 40.289062 10.753906 39.765625 C 10.753906 39.246094 11.175781 38.828125 11.699219 38.828125 C 12.226562 38.828125 12.644531 39.246094 12.644531 39.765625 C 12.644531 40.289062 12.226562 40.707031 11.699219 40.707031 Z M 11.699219 40.707031 " fill-opacity="1" fill-rule="nonzero"/><path fill="#ffffff" d="M 22.617188 37.664062 C 21.449219 37.664062 20.488281 38.601562 20.488281 39.78125 C 20.488281 40.960938 21.433594 41.902344 22.617188 41.902344 C 23.800781 41.902344 24.746094 40.960938 24.746094 39.78125 C 24.746094 38.601562 23.785156 37.664062 22.617188 37.664062 Z M 22.617188 40.707031 C 22.09375 40.707031 21.671875 40.289062 21.671875 39.765625 C 21.671875 39.246094 22.09375 38.828125 22.617188 38.828125 C 23.140625 38.828125 23.5625 39.246094 23.5625 39.765625 C 23.5625 40.289062 23.128906 40.707031 22.617188 40.707031 Z M 22.617188 40.707031 " fill-opacity="1" fill-rule="nonzero"/><path fill="#ffffff" d="M 3.949219 31.558594 L 10.921875 31.558594 C 11.117188 31.558594 11.28125 31.394531 11.28125 31.199219 C 11.28125 31.007812 11.117188 30.84375 10.921875 30.84375 L 3.949219 30.84375 C 3.753906 30.84375 3.589844 31.007812 3.589844 31.199219 C 3.589844 31.394531 3.753906 31.558594 3.949219 31.558594 Z M 3.949219 31.558594 " fill-opacity="1" fill-rule="nonzero"/><path fill="#ffffff" d="M 9.707031 33.007812 C 9.902344 33.007812 10.066406 32.84375 10.066406 32.648438 C 10.066406 32.453125 9.902344 32.289062 9.707031 32.289062 L 6.273438 32.289062 C 6.078125 32.289062 5.914062 32.453125 5.914062 32.648438 C 5.914062 32.84375 6.078125 33.007812 6.273438 33.007812 Z M 9.707031 33.007812 " fill-opacity="1" fill-rule="nonzero"/><path fill="#ffffff" d="M 4.710938 34.109375 C 4.710938 34.304688 4.878906 34.46875 5.074219 34.46875 L 11.625 34.46875 C 11.820312 34.46875 11.984375 34.304688 11.984375 34.109375 C 11.984375 33.917969 11.820312 33.753906 11.625 33.753906 L 5.074219 33.753906 C 4.878906 33.738281 4.710938 33.902344 4.710938 34.109375 Z M 4.710938 34.109375 " fill-opacity="1" fill-rule="nonzero"/><path fill="#ffffff" d="M 9.03125 35.558594 C 9.03125 35.363281 8.867188 35.199219 8.671875 35.199219 L 2.867188 35.199219 C 2.671875 35.199219 2.507812 35.363281 2.507812 35.558594 C 2.507812 35.753906 2.671875 35.917969 2.867188 35.917969 L 8.65625 35.917969 C 8.867188 35.929688 9.03125 35.765625 9.03125 35.558594 Z M 9.03125 35.558594 " fill-opacity="1" fill-rule="nonzero"/><path fill="#ffffff" d="M 9.8125 37.019531 C 9.8125 36.828125 9.644531 36.664062 9.453125 36.664062 L 4.546875 36.664062 C 4.351562 36.664062 4.1875 36.828125 4.1875 37.019531 C 4.1875 37.214844 4.351562 37.378906 4.546875 37.378906 L 9.453125 37.378906 C 9.644531 37.378906 9.8125 37.214844 9.8125 37.019531 Z M 9.8125 37.019531 " fill-opacity="1" fill-rule="nonzero"/><path fill="#5f2bb8" d="M 32.078125 40.707031 L 34.492188 40.707031 C 34.972656 40.707031 35.347656 40.765625 35.648438 40.902344 C 35.949219 41.035156 36.1875 41.230469 36.367188 41.46875 C 36.5625 41.722656 36.699219 42.007812 36.789062 42.335938 C 36.878906 42.664062 36.921875 43.007812 36.921875 43.378906 C 36.921875 43.960938 36.863281 44.410156 36.726562 44.722656 C 36.59375 45.035156 36.429688 45.304688 36.1875 45.527344 C 35.964844 45.738281 35.722656 45.886719 35.453125 45.960938 C 35.09375 46.066406 34.777344 46.109375 34.476562 46.109375 L 32.0625 46.109375 L 32.0625 40.707031 Z M 33.699219 41.929688 L 33.699219 44.886719 L 34.105469 44.886719 C 34.449219 44.886719 34.6875 44.84375 34.824219 44.765625 C 34.972656 44.691406 35.078125 44.558594 35.152344 44.363281 C 35.226562 44.171875 35.273438 43.855469 35.273438 43.425781 C 35.273438 42.855469 35.183594 42.453125 35.003906 42.246094 C 34.824219 42.035156 34.523438 41.929688 34.105469 41.929688 Z M 33.699219 41.929688 " fill-opacity="1" fill-rule="nonzero"/><path fill="#5f2bb8" d="M 38.136719 40.707031 L 42.484375 40.707031 L 42.484375 41.855469 L 39.757812 41.855469 L 39.757812 42.707031 L 42.289062 42.707031 L 42.289062 43.8125 L 39.757812 43.8125 L 39.757812 44.871094 L 42.5625 44.871094 L 42.5625 46.09375 L 38.136719 46.09375 Z M 38.136719 40.707031 " fill-opacity="1" fill-rule="nonzero"/><path fill="#5f2bb8" d="M 43.804688 40.707031 L 45.425781 40.707031 L 45.425781 44.78125 L 47.960938 44.78125 L 47.960938 46.109375 L 43.804688 46.109375 Z M 43.804688 40.707031 " fill-opacity="1" fill-rule="nonzero"/><path fill="#5f2bb8" d="M 49.128906 40.707031 L 50.761719 40.707031 L 50.761719 46.109375 L 49.128906 46.109375 Z M 49.128906 40.707031 " fill-opacity="1" fill-rule="nonzero"/><path fill="#5f2bb8" d="M 51.769531 40.707031 L 53.460938 40.707031 L 54.648438 44.589844 L 55.816406 40.707031 L 57.464844 40.707031 L 55.515625 46.109375 L 53.761719 46.109375 Z M 51.769531 40.707031 " fill-opacity="1" fill-rule="nonzero"/><path fill="#5f2bb8" d="M 58.367188 40.707031 L 62.714844 40.707031 L 62.714844 41.855469 L 59.984375 41.855469 L 59.984375 42.707031 L 62.519531 42.707031 L 62.519531 43.8125 L 59.984375 43.8125 L 59.984375 44.871094 L 62.789062 44.871094 L 62.789062 46.09375 L 58.367188 46.09375 Z M 58.367188 40.707031 " fill-opacity="1" fill-rule="nonzero"/><path fill="#5f2bb8" d="M 64.050781 46.109375 L 64.050781 40.707031 L 66.75 40.707031 C 67.242188 40.707031 67.632812 40.753906 67.902344 40.84375 C 68.171875 40.929688 68.382812 41.09375 68.546875 41.335938 C 68.710938 41.574219 68.789062 41.871094 68.789062 42.214844 C 68.789062 42.511719 68.726562 42.765625 68.609375 42.992188 C 68.488281 43.214844 68.308594 43.378906 68.097656 43.511719 C 67.964844 43.601562 67.769531 43.679688 67.527344 43.722656 C 67.722656 43.78125 67.859375 43.855469 67.949219 43.917969 C 68.007812 43.960938 68.097656 44.050781 68.203125 44.199219 C 68.324219 44.347656 68.398438 44.453125 68.429688 44.527344 L 69.207031 46.09375 L 67.378906 46.09375 L 66.507812 44.453125 C 66.402344 44.246094 66.296875 44.09375 66.207031 44.035156 C 66.089844 43.945312 65.953125 43.917969 65.804688 43.917969 L 65.652344 43.917969 L 65.652344 46.109375 Z M 65.683594 42.902344 L 66.375 42.902344 C 66.449219 42.902344 66.582031 42.871094 66.808594 42.828125 C 66.914062 42.8125 67.003906 42.753906 67.078125 42.664062 C 67.152344 42.574219 67.183594 42.46875 67.183594 42.347656 C 67.183594 42.171875 67.125 42.035156 67.019531 41.945312 C 66.914062 41.855469 66.703125 41.8125 66.417969 41.8125 L 65.683594 41.8125 Z M 65.683594 42.902344 " fill-opacity="1" fill-rule="nonzero"/><path fill="#5f2bb8" d="M 69.269531 40.707031 L 71.066406 40.707031 L 72.132812 42.527344 L 73.195312 40.707031 L 74.996094 40.707031 L 72.957031 43.84375 L 72.957031 46.09375 L 71.320312 46.09375 L 71.320312 43.84375 Z M 69.269531 40.707031 " fill-opacity="1" fill-rule="nonzero"/></svg>